# xmcd
#
# Track frame offsets:
# 150
# 3180
# 20912
# 38292
# 51869
# 71805
# 83676
# 95761
# 113683
# 128253
# 140497
# 156720
# 171017
# 184710
# 203308
# 216843
#
# Disc length: 3176 seconds
#
#
# Revision: 0
# Processed by: cddbd v1.5.2PL0 Copyright (c) Steve Scherf et al.
# Submitted via: FreeRIP 2.96 
#
DISCID=cf0c6610
DTITLE=zezé di camargo e luciano - zezé di camargo e luciano 2009
DYEAR=2009
DGENRE=Country
TTITLE0=introdução
TTITLE1=a distância
TTITLE2=o que vai ser de nós
TTITLE3=o povo fala
TTITLE4=não quero te perder
TTITLE5=estrada do amor
TTITLE6=faça alguma coisa
TTITLE7=nunca amei assim
TTITLE8=valeu demais
TTITLE9=pelos botecos do brasil
TTITLE10=agora
TTITLE11=o melhor é dar um tempo
TTITLE12=vida boa
TTITLE13=amor correspondido
TTITLE14=prisioneiro da saudade
TTITLE15=é o amor instr. (bônus track)
EXTD=
EXTT0=
EXTT1=
EXTT2=
EXTT3=
EXTT4=
EXTT5=
EXTT6=
EXTT7=
EXTT8=
EXTT9=
EXTT10=
EXTT11=
EXTT12=
EXTT13=
EXTT14=
EXTT15=
PLAYORDER=
